<?xml version="1.0" encoding="UTF-8"?>
<svg width="10px" height="10px" viewBox="0 0 10 10" version="1.1" xmlns="http://www.w3.org/2000/svg" xmlns:xlink="http://www.w3.org/1999/xlink">
    <!-- Generator: sketchtool 48.2 (47327) - http://www.bohemiancoding.com/sketch -->
    <title>D9165119-F8B5-46B7-98EB-98CFEA7413B7</title>
    <desc>Created with sketchtool.</desc>
    <defs></defs>
    <g id="Home---PPC-Campaign---Desktop" stroke="none" stroke-width="1" fill="none" fill-rule="evenodd" transform="translate(-835.000000, -225.000000)">
        <g id="Search" transform="translate(805.000000, 124.000000)" fill="#FF7400">
            <g id="Group-2" transform="translate(18.000000, 51.000000)">
                <path d="M12.8466535,58.9059021 C12.8466535,59.0429935 12.9591027,59.1554426 13.0960918,59.1554426 L20.9059021,59.1554426 C21.043019,59.1554426 21.1554426,59.0429935 21.1554426,58.9059021 L21.1554426,53.918236 L12.8466535,53.918236 L12.8466535,58.9059021 Z M12,52.1718103 C12,51.56846 12.4907732,51.0777124 13.0940979,51.0777124 L14.3210949,51.0777124 L14.3210949,50.3988252 C14.3210949,50.1779401 14.499035,50 14.7197922,50 L15.3435924,50 C15.5644519,50 15.7422897,50.1779401 15.7422897,50.3988252 L15.7422897,51.0756162 L18.2577103,51.0756162 L18.2577103,50.3988252 C18.2577103,50.1779401 18.4356504,50 18.6564076,50 L19.2802078,50 C19.5010672,50 19.6789051,50.1779401 19.6789051,50.3988252 L19.6789051,51.0756162 L20.9059021,51.0756162 C21.5092268,51.0756162 22,51.5664917 22,52.1696886 L22,58.9059021 C22,59.5092268 21.5092268,60 20.9059021,60 L13.0940979,60 C12.4907732,60 12,59.5092268 12,58.9059021 L12,52.1718103 Z M18.8138722,58.4867293 C18.9182437,58.4867293 19.002114,58.4028333 19.002114,58.2985897 L19.002114,57.6012209 C19.002114,57.4969772 18.9182437,57.4131069 18.8138722,57.4131069 L18.1166056,57.4131069 C18.0122597,57.4131069 17.9284916,57.4969772 17.9284916,57.6012209 L17.9284916,58.2985897 C17.9284916,58.4028333 18.0122597,58.4867293 18.1166056,58.4867293 L18.8138722,58.4867293 Z M20.2720303,57.0675027 C20.3762995,57.0675027 20.4601699,56.9836324 20.4601699,56.8793888 L20.4601699,56.1819943 C20.4601699,56.0777507 20.3762995,55.9938804 20.2720303,55.9938804 L19.5746615,55.9938804 C19.4703156,55.9938804 19.3865475,56.0777507 19.3865475,56.1819943 L19.3865475,56.8793888 C19.3885414,56.9836324 19.4724117,57.0675027 19.5746615,57.0675027 L20.2720303,57.0675027 Z M18.8138722,55.6461801 C18.9182437,55.6461801 19.002114,55.562412 19.002114,55.4580917 L19.002114,54.7606717 C19.002114,54.6564536 18.9182437,54.5725577 18.8138722,54.5725577 L18.1166056,54.5725577 C18.0122597,54.5725577 17.9284916,54.6564536 17.9284916,54.7606717 L17.9284916,55.4580917 C17.9284916,55.562412 18.0122597,55.6461801 18.1166056,55.6461801 L18.8138722,55.6461801 Z M15.8956644,58.4867293 C16.0000102,58.4867293 16.0839061,58.4028333 16.0839061,58.2985897 L16.0839061,57.6012209 C16.0839061,57.4969772 16.0000102,57.4131069 15.8956644,57.4131069 L15.1983977,57.4131069 C15.0940519,57.4131069 15.0102838,57.4969772 15.0102838,57.6012209 L15.0102838,58.2985897 C15.0122776,58.4028333 15.096148,58.4867293 15.1983977,58.4867293 L15.8956644,58.4867293 Z M17.3538225,58.4867293 C17.4580661,58.4867293 17.541962,58.4028333 17.541962,58.2985897 L17.541962,57.6012209 C17.541962,57.4969772 17.4580661,57.4131069 17.3538225,57.4131069 L16.6564536,57.4131069 C16.5521078,57.4131069 16.4683396,57.4969772 16.4683396,57.6012209 L16.4683396,58.2985897 C16.4703335,58.4028333 16.5542039,58.4867293 16.6564536,58.4867293 L17.3538225,58.4867293 Z M14.4376085,57.0675027 C14.5419544,57.0675027 14.625748,56.9836324 14.625748,56.8793888 L14.625748,56.1819943 C14.625748,56.0777507 14.5419544,55.9938804 14.4376085,55.9938804 L13.7402396,55.9938804 C13.635996,55.9938804 13.5521256,56.0777507 13.5521256,56.1819943 L13.5521256,56.8793888 C13.5521256,56.9836324 13.635996,57.0675027 13.7402396,57.0675027 L14.4376085,57.0675027 Z M18.8138722,57.0675027 C18.9182437,57.0675027 19.002114,56.9836324 19.002114,56.8793888 L19.002114,56.1819943 C19.002114,56.0777507 18.9182437,55.9938804 18.8138722,55.9938804 L18.1166056,55.9938804 C18.0122597,55.9938804 17.9284916,56.0777507 17.9284916,56.1819943 L17.9284916,56.8793888 C17.9284916,56.9836324 18.0122597,57.0675027 18.1166056,57.0675027 L18.8138722,57.0675027 Z M17.3538225,57.0675027 C17.4580661,57.0675027 17.541962,56.9836324 17.541962,56.8793888 L17.541962,56.1819943 C17.541962,56.0777507 17.4580661,55.9938804 17.3538225,55.9938804 L16.6564536,55.9938804 C16.5521078,55.9938804 16.4683396,56.0777507 16.4683396,56.1819943 L16.4683396,56.8793888 C16.4703335,56.9836324 16.5542039,57.0675027 16.6564536,57.0675027 L17.3538225,57.0675027 Z M15.8956644,57.0675027 C16.0000102,57.0675027 16.0839061,56.9836324 16.0839061,56.8793888 L16.0839061,56.1819943 C16.0839061,56.0777507 16.0000102,55.9938804 15.8956644,55.9938804 L15.1983977,55.9938804 C15.0940519,55.9938804 15.0102838,56.0777507 15.0102838,56.1819943 L15.0102838,56.8793888 C15.0122776,56.9836324 15.096148,57.0675027 15.1983977,57.0675027 L15.8956644,57.0675027 Z M17.3538225,55.6461801 C17.4580661,55.6461801 17.541962,55.562412 17.541962,55.4580917 L17.541962,54.7606717 C17.541962,54.6564536 17.4580661,54.5725577 17.3538225,54.5725577 L16.6564536,54.5725577 C16.5521078,54.5725577 16.4683396,54.6564536 16.4683396,54.7606717 L16.4683396,55.4580917 C16.4703335,55.562412 16.5542039,55.6461801 16.6564536,55.6461801 L17.3538225,55.6461801 Z M15.8956644,55.6461801 C16.0000102,55.6461801 16.0839061,55.562412 16.0839061,55.4580917 L16.0839061,54.7606717 C16.0839061,54.6564536 16.0000102,54.5725577 15.8956644,54.5725577 L15.1983977,54.5725577 C15.0940519,54.5725577 15.0102838,54.6564536 15.0102838,54.7606717 L15.0102838,55.4580917 C15.0122776,55.562412 15.096148,55.6461801 15.1983977,55.6461801 L15.8956644,55.6461801 Z M13.5521256,54.7627678 C13.5521256,54.6584219 13.635996,54.5746794 13.7402396,54.5746794 L14.4376085,54.5746794 C14.5419544,54.5746794 14.625748,54.6584219 14.625748,54.7627678 L14.625748,55.4601622 C14.625748,55.5644058 14.5419544,55.6482762 14.4376085,55.6482762 L13.7402396,55.6482762 C13.635996,55.6461801 13.5521256,55.562412 13.5521256,55.4601622 L13.5521256,54.7627678 Z" id="Fill-1"></path>
            </g>
        </g>
    </g>
</svg>