<?xml version="1.0" encoding="UTF-8"?>
<svg width="11px" height="12px" viewBox="0 0 11 12" version="1.1" xmlns="http://www.w3.org/2000/svg" xmlns:xlink="http://www.w3.org/1999/xlink">
    <!-- Generator: sketchtool 48.2 (47327) - http://www.bohemiancoding.com/sketch -->
    <title>3E7CE0FF-0D66-4226-8AF0-99924789CB0D</title>
    <desc>Created with sketchtool.</desc>
    <defs></defs>
    <g id="Home---PPC-Campaign---Desktop" stroke="none" stroke-width="1" fill="none" fill-rule="evenodd" transform="translate(-834.000000, -188.000000)">
        <g id="Search" transform="translate(805.000000, 124.000000)" stroke="#FF7400">
            <g id="Group-2" transform="translate(18.000000, 51.000000)">
                <path d="M15.7061429,21.5523353 C13.8569318,21.5523353 12.3533862,19.9427439 12.3533862,17.9652121 C12.3533862,15.9867362 13.8569318,14.3780888 15.7061429,14.3780888 C17.5544717,14.3780888 19.0588997,15.9867362 19.0588997,17.9652121 C19.0588997,19.9427439 17.5544717,21.5523353 15.7061429,21.5523353 M20.951126,23.6813859 L18.3291859,20.7631163 C18.9977961,20.0449364 19.4122858,19.0558165 19.4122858,17.9652121 C19.4122858,15.778339 17.7490326,14 15.7061429,14 C13.6621503,14 12,15.778339 12,17.9652121 C12,20.1511411 13.6621503,21.9306601 15.7061429,21.9306601 C16.6030644,21.9306601 17.4260879,21.5867929 18.0680066,21.0177716 L20.6961232,23.9428855 C20.7305354,23.9815912 20.77708,24 20.8236246,24 C20.8675221,24 20.9116402,23.9825352 20.9460524,23.9476057 C21.015759,23.8756225 21.0184061,23.7557292 20.951126,23.6813859" id="Fill-1"></path>
            </g>
        </g>
    </g>
</svg>